<?xml version="1.0" encoding="UTF-8"?>
<svg width="91" height="52" viewBox="0 0 91 52" xmlns="http://www.w3.org/2000/svg">
    <!-- Main body -->
    <path d="M5,5 H86 Q89,5 89,8 V44 Q89,47 86,47 H5 Q2,47 2,44 V8 Q2,5 5,5 Z" fill="#FFD700"/>
    
    <!-- Front windshield (darker, more angular) -->
    <path d="M60,10 H80 Q81,10 81,11 V20 H59 V11 Q59,10 60,10 Z" fill="#1a1a1a"/>
    
    <!-- Rear windshield (more rectangular) -->
    <path d="M10,10 H30 Q31,10 31,11 V20 H9 V11 Q9,10 10,10 Z" fill="#1a1a1a"/>
    
    <!-- Side mirrors -->
    <rect x="0" y="20" width="3" height="8" rx="1" fill="#FFD700"/>
    <rect x="88" y="20" width="3" height="8" rx="1" fill="#FFD700"/>
    
    <!-- Front grill (to indicate front of car) -->
    <rect x="82" y="25" width="5" height="12" fill="#333333"/>
    
    <!-- Headlights -->
    <rect x="81" y="15" width="6" height="8" rx="2" fill="#FFF9C4"/>
    <rect x="81" y="35" width="6" height="8" rx="2" fill="#FFF9C4"/>
    
    <!-- Taillights -->
    <rect x="4" y="15" width="4" height="8" rx="2" fill="#FF0000"/>
    <rect x="4" y="35" width="4" height="8" rx="2" fill="#FF0000"/>
    
    <!-- Wheels -->
    <rect x="20" y="2" width="12" height="5" rx="2" fill="#1a1a1a"/>
    <rect x="60" y="2" width="12" height="5" rx="2" fill="#1a1a1a"/>
    <rect x="20" y="45" width="12" height="5" rx="2" fill="#1a1a1a"/>
    <rect x="60" y="45" width="12" height="5" rx="2" fill="#1a1a1a"/>
</svg> 