<?xml version="1.0" encoding="UTF-8"?>
<svg width="24px" height="24px" viewBox="0 0 24 24" version="1.1" xmlns="http://www.w3.org/2000/svg">
    <g stroke="none" stroke-width="1" fill="none" fill-rule="evenodd">
        <path d="M12,15 C13.6568542,15 15,13.6568542 15,12 C15,10.3431458 13.6568542,9 12,9 C10.3431458,9 9,10.3431458 9,12 C9,13.6568542 10.3431458,15 12,15 Z" fill="#FFFFFF"/>
        <path d="M19.4,13 L19.4,11 L21.5,9.3 C21.7,9.1 21.7,8.9 21.6,8.7 L19.6,5.3 C19.5,5.1 19.3,5 19.1,5.1 L16.6,6.1 C16.2,5.8 15.8,5.5 15.4,5.3 L15,2.6 C15,2.4 14.8,2.2 14.6,2.2 L10.6,2.2 C10.4,2.2 10.2,2.4 10.2,2.6 L9.8,5.3 C9.4,5.5 9,5.8 8.6,6.1 L6.1,5.1 C5.9,5 5.7,5.1 5.6,5.3 L3.6,8.7 C3.5,8.9 3.5,9.1 3.7,9.3 L5.8,11 L5.8,13 L3.7,14.7 C3.5,14.9 3.5,15.1 3.6,15.3 L5.6,18.7 C5.7,18.9 5.9,19 6.1,18.9 L8.6,17.9 C9,18.2 9.4,18.5 9.8,18.7 L10.2,21.4 C10.2,21.6 10.4,21.8 10.6,21.8 L14.6,21.8 C14.8,21.8 15,21.6 15,21.4 L15.4,18.7 C15.8,18.5 16.2,18.2 16.6,17.9 L19.1,18.9 C19.3,19 19.5,18.9 19.6,18.7 L21.6,15.3 C21.7,15.1 21.7,14.9 21.5,14.7 L19.4,13 Z" stroke="#FFFFFF" stroke-width="1.5"/>
    </g>
</svg> 